<?xml version="1.0" standalone="no"?>
<svg xmlns="http://www.w3.org/2000/svg" viewBox="0 0 94 70" width="94" height="70"><g fill="#bba364" color="#bba364" transform="translate(24.969 0) scale(0.44) "><svg width="100.0" height="100.0" x="0.0" y="0.0" viewBox="0 0 100 100"><g><path fill="currentColor" d="M67.022,66.238c4.007-0.975,9.697-2.172,15.654-2.81c0.27-1.359,0.416-2.747,0.416-4.161   c0-0.529-0.022-1.056-0.061-1.578v-7.557C80.241,56.723,74.527,62.363,67.022,66.238z"></path><path fill="currentColor" d="M43.141,69.965c22.065,0,39.952-12.994,39.952-29.023c0-16.029-17.887-29.022-39.952-29.022   c-22.065,0-39.952,12.994-39.952,29.022C3.188,56.971,21.076,69.965,43.141,69.965z M9.82,40.94c0-4.666,5.207-8.448,11.63-8.448   c6.423,0,11.63,3.783,11.63,8.448c0,4.666-5.207,8.449-11.63,8.449C15.026,49.389,9.82,45.606,9.82,40.94z M76.462,40.94   c0,4.666-5.209,8.449-11.632,8.449S53.2,45.606,53.2,40.94c0-4.666,5.207-8.448,11.63-8.448S76.462,36.275,76.462,40.94z    M31.509,56.698c0-4.665,5.208-8.449,11.629-8.449c6.424,0,11.631,3.784,11.631,8.449c0,4.667-5.208,8.448-11.631,8.448   C36.716,65.146,31.509,61.365,31.509,56.698z M40.176,40.941c0-1.189,1.328-2.153,2.965-2.153s2.965,0.964,2.965,2.153   c0,1.189-1.328,2.154-2.965,2.154S40.176,42.131,40.176,40.941z M54.77,25.186c0,4.666-5.208,8.449-11.631,8.449   c-6.422,0-11.629-3.783-11.629-8.449c0-4.667,5.208-8.449,11.629-8.449C49.562,16.736,54.77,20.519,54.77,25.186z"></path><path fill="currentColor" d="M85.484,64.411c-10.738,0.977-24.245,4.428-30.171,6.047c-3.854,0.868-7.939,1.339-12.173,1.339   c-18.725,0-34.613-9.143-39.907-21.701v7.876c-0.026,0.43-0.045,0.861-0.045,1.295c0,16.03,17.887,29.023,39.952,29.023   c7.255,0,14.053-1.412,19.916-3.867c22.008-5.756,34.193-3.097,34.193-3.097V64.955C94.481,64.033,90.256,63.978,85.484,64.411z"></path></g></svg></g><path fill="#0a1256" fill-rule="nonzero" d="M21.77 1.01L23.52 1.01L23.52 11.21Q23.52 14.54 21.88 16.25Q20.23 17.95 17.23 17.95L17.23 17.95Q15.24 17.95 13.84 17.18Q12.43 16.42 11.76 15L11.76 15Q11.06 16.44 9.67 17.20Q8.28 17.95 6.31 17.95L6.31 17.95Q3.29 17.95 1.64 16.25Q0 14.54 0 11.21L0 11.21L0 1.01L1.78 1.01L1.78 11.14Q1.78 16.37 6.31 16.37L6.31 16.37Q8.50 16.37 9.70 15.08Q10.90 13.80 10.90 11.14L10.90 11.14L10.90 1.01L12.65 1.01L12.65 11.14Q12.65 13.82 13.84 15.10Q15.02 16.37 17.23 16.37L17.23 16.37Q19.42 16.37 20.59 15.08Q21.77 13.80 21.77 11.14L21.77 11.14L21.77 1.01ZM28.49 17.81L28.49 5.18L30.19 5.18L30.19 17.81L28.49 17.81ZM29.35 2.42Q28.82 2.42 28.46 2.06Q28.10 1.70 28.10 1.20L28.10 1.20Q28.10 0.72 28.46 0.36Q28.82 0 29.35 0L29.35 0Q29.88 0 30.24 0.35Q30.60 0.70 30.60 1.18L30.60 1.18Q30.60 1.70 30.24 2.06Q29.88 2.42 29.35 2.42L29.35 2.42ZM44.71 17.81L39.62 11.47L36.65 14.21L36.65 17.81L34.94 17.81L34.94 0L36.65 0L36.65 12.07L44.18 5.18L46.30 5.18L40.90 10.34L46.80 17.81L44.71 17.81ZM49.18 17.81L49.18 5.18L50.88 5.18L50.88 17.81L49.18 17.81ZM50.04 2.42Q49.51 2.42 49.15 2.06Q48.79 1.70 48.79 1.20L48.79 1.20Q48.79 0.72 49.15 0.36Q49.51 0 50.04 0L50.04 0Q50.57 0 50.93 0.35Q51.29 0.70 51.29 1.18L51.29 1.18Q51.29 1.70 50.93 2.06Q50.57 2.42 50.04 2.42L50.04 2.42ZM62.52 2.45Q60.05 2.45 58.84 3.56Q57.62 4.68 57.62 6.79L57.62 6.79L57.62 9.14L65.64 9.14L65.64 10.68L57.62 10.68L57.62 17.81L55.85 17.81L55.85 6.77Q55.85 4.01 57.58 2.44Q59.30 0.86 62.45 0.86L62.45 0.86Q65.50 0.86 67.34 2.18L67.34 2.18L66.70 3.65Q65.06 2.45 62.52 2.45L62.52 2.45ZM73.63 17.93Q71.93 17.93 71.00 16.97Q70.08 16.01 70.08 14.30L70.08 14.30L70.08 0L71.78 0L71.78 14.16Q71.78 15.29 72.31 15.88Q72.84 16.46 73.90 16.46L73.90 16.46Q74.57 16.46 75.05 16.25L75.05 16.25L75.17 17.66Q74.42 17.93 73.63 17.93L73.63 17.93ZM77.50 17.81L77.50 5.18L79.20 5.18L79.20 17.81L77.50 17.81ZM78.36 2.42Q77.83 2.42 77.47 2.06Q77.11 1.70 77.11 1.20L77.11 1.20Q77.11 0.72 77.47 0.36Q77.83 0 78.36 0L78.36 0Q78.89 0 79.25 0.35Q79.61 0.70 79.61 1.18L79.61 1.18Q79.61 1.70 79.25 2.06Q78.89 2.42 78.36 2.42L78.36 2.42ZM93.94 17.81L91.99 17.81L87.98 12.53L83.95 17.81L82.03 17.81L87.02 11.33L82.27 5.18L84.19 5.18L87.98 10.13L91.78 5.18L93.65 5.18L88.90 11.33L93.94 17.81Z" transform="translate(0, 52)"></path></svg>